<svg xmlns="http://www.w3.org/2000/svg" width="150" height="45" viewBox="0 0 150 45" role="img" aria-label="おちゃのこネット">
  <g id="ocnk_ci" transform="translate(-75 -35)">
    <rect id="bg" width="150" height="45" transform="translate(75 35)" fill="#fff" opacity="0"></rect>
    <path id="pass" d="M14137.613,2135.1l-1.21-3.507c-.339.135-.7.292-1.09.474l-.007,0a.815.815,0,0,1-.268.061.635.635,0,0,1-.6-.645.584.584,0,0,1,.366-.548c.42-.189.819-.36,1.186-.506l-.431-1.253a.422.422,0,0,1-.035-.192.642.642,0,0,1,.694-.563.581.581,0,0,1,.584.385l.405,1.172a10.4,10.4,0,0,1,1.67-.424.674.674,0,0,1-.142-.093,7.584,7.584,0,0,0-.809-.552.587.587,0,0,1-.307-.491.666.666,0,0,1,.674-.634.775.775,0,0,1,.359.093,5.439,5.439,0,0,1,.911.577l.008,0a.7.7,0,0,1,.281.527.642.642,0,0,1-.246.495c.1,0,.21-.007.313-.007,1.4,0,2.268.659,2.268,1.716a1.813,1.813,0,0,1-1.982,1.837,4.08,4.08,0,0,1-.876-.089.663.663,0,0,1-.549-.652.633.633,0,0,1,.63-.645.969.969,0,0,1,.189.025l.014,0a1.876,1.876,0,0,0,.549.078c.463,0,.68-.185.68-.559,0-.128,0-.5-.933-.5a7.246,7.246,0,0,0-2.3.445l1.226,3.561a.718.718,0,0,1,.035.214.641.641,0,0,1-.669.6A.6.6,0,0,1,14137.613,2135.1Zm-9.293-.63a.656.656,0,0,1,.655-.673c1.67-.117,2.518-.616,2.518-1.489,0-.52-.35-.783-1.04-.783a4.185,4.185,0,0,0-3.013,1.285.851.851,0,0,1-.556.228.719.719,0,0,1-.736-.708,1.06,1.06,0,0,1,.05-.292l0-.007a19.829,19.829,0,0,0,.737-2.681c-.417.029-.833.046-1.243.046a.662.662,0,0,1-.68-.684.651.651,0,0,1,.67-.677c.416,0,.922-.025,1.5-.071.067-.495.121-.965.167-1.428a.686.686,0,0,1,.729-.609.71.71,0,0,1,.538.224.613.613,0,0,1,.149.495c-.046.438-.089.808-.139,1.157.787-.107,1.514-.228,2.115-.363l.007,0a.989.989,0,0,1,.186-.021.674.674,0,0,1,.669.687.686.686,0,0,1-.6.673,26.075,26.075,0,0,1-2.613.427,16.516,16.516,0,0,1-.385,1.61,5.75,5.75,0,0,1,2.429-.595c1.588,0,2.535.773,2.535,2.069,0,1.642-1.488,2.742-3.893,2.863a.242.242,0,0,1-.05,0A.682.682,0,0,1,14128.32,2134.466Zm-13.809-1.165c0-.983.723-1.78,2.265-2.5v-1.467c-.538.05-.951.075-1.289.075h-.019a.609.609,0,0,1-.48-.217.709.709,0,0,1-.16-.456.651.651,0,0,1,.659-.684c.3-.007.762-.032,1.289-.085v-1.431a.716.716,0,0,1,1.428,0v1.232c.292-.053.559-.107.8-.167a.781.781,0,0,1,.231-.025.684.684,0,0,1,.7.677.666.666,0,0,1-.556.648c-.389.1-.783.178-1.179.242v1.214a7.4,7.4,0,0,1,1.638-.164c1.77,0,2.87.837,2.87,2.2,0,1.378-.933,2.3-2.557,2.531a.827.827,0,0,1-.132.011.69.69,0,0,1-.523-.221.712.712,0,0,1-.186-.481.686.686,0,0,1,.6-.684c1.175-.2,1.307-.751,1.307-1.147,0-.541-.548-.9-1.371-.9a6.067,6.067,0,0,0-1.645.228v1.723c0,1.111-.488,1.609-1.592,1.609A2.042,2.042,0,0,1,14114.512,2133.3Zm1.467-.018c0,.235.32.381.612.381.149-.007.186-.032.186-.3V2132.3C14116.046,2132.742,14115.979,2133.02,14115.979,2133.283Zm32.7.78a.746.746,0,0,1,.538-.708,2.5,2.5,0,0,0,1.979-2.542,2.371,2.371,0,0,0-2.229-2.407,10.159,10.159,0,0,1-1.189,4.28,2.276,2.276,0,0,1-2.118,1.375c-1.047,0-2.1-.8-2.1-2.6,0-2.518,2.147-4.419,4.992-4.419,2.492,0,4.17,1.517,4.17,3.771a3.976,3.976,0,0,1-.812,2.475,4.418,4.418,0,0,1-2.2,1.463.79.79,0,0,1-.292.053A.742.742,0,0,1,14148.681,2134.063Zm-3.621-2.6c0,.708.231,1.15.6,1.15.21,0,.459-.075.776-.616a8.838,8.838,0,0,0,1-3.49A3.1,3.1,0,0,0,14145.06,2131.46Zm10.105,2.752a1.851,1.851,0,0,1-.876-1.7,2.792,2.792,0,0,1,.124-.812.715.715,0,0,1,.727-.52.665.665,0,0,1,.723.623,1.161,1.161,0,0,1-.021.175l0,.007a2.12,2.12,0,0,0-.057.474c0,.481.156.851,2.153.851a14.5,14.5,0,0,0,2.82-.3l.028-.007a.9.9,0,0,1,.168-.018.7.7,0,0,1,.705.716.757.757,0,0,1-.627.734,14.191,14.191,0,0,1-3.095.324A5.365,5.365,0,0,1,14155.165,2134.213Zm-33.076-4.707a8.06,8.06,0,0,0-1.235-.876.657.657,0,0,1-.374-.595.771.771,0,0,1,.747-.755.786.786,0,0,1,.356.089,7.99,7.99,0,0,1,1.5,1.018.765.765,0,0,1,.292.595.756.756,0,0,1-.755.737A.781.781,0,0,1,14122.089,2129.506Zm33.617-1.022a.722.722,0,0,1-.584-.712.713.713,0,0,1,.712-.744.817.817,0,0,1,.157.018,10.02,10.02,0,0,0,2.008.2,12.587,12.587,0,0,0,1.948-.132h.007c.039,0,.074-.007.114-.007a.718.718,0,0,1,.117,1.424h0a15.064,15.064,0,0,1-2.172.15A12.284,12.284,0,0,1,14155.706,2128.484Zm16.155-15.443a8.187,8.187,0,1,1,8.187,8.069A8.133,8.133,0,0,1,14171.861,2113.041Zm3.233,0a4.955,4.955,0,1,0,4.953-4.885A4.938,4.938,0,0,0,14175.095,2113.041Zm-36.5,0a8.185,8.185,0,1,1,8.187,8.069A8.133,8.133,0,0,1,14138.6,2113.041Zm3.23,0a4.957,4.957,0,1,0,4.956-4.885A4.94,4.94,0,0,0,14141.83,2113.041Zm-9,6.459v-6.459a4.956,4.956,0,0,0-9.91,0v6.459a1.615,1.615,0,0,1-3.229,0v-6.459a8.185,8.185,0,0,1,16.369,0v6.459a1.615,1.615,0,0,1-3.229,0Zm-39,0v-7.456a3.962,3.962,0,0,0-7.923,0v7.456a1.615,1.615,0,0,1-3.229,0v-20.923a1.615,1.615,0,0,1,3.229,0v7.552a7.23,7.23,0,0,1,11.152,5.914v7.456a1.626,1.626,0,0,1-1.634,1.609A1.6,1.6,0,0,1,14093.83,2119.5Zm-49.829-6.459a8.187,8.187,0,1,1,8.187,8.069A8.133,8.133,0,0,1,14044,2113.041Zm3.229,0a4.957,4.957,0,1,0,4.957-4.885A4.941,4.941,0,0,0,14047.23,2113.041Zm65.935,6.427a7.173,7.173,0,0,1-4.824,1.609,7.956,7.956,0,0,1-8.251-7.908,8.139,8.139,0,0,1,8.251-8.133,7.946,7.946,0,0,1,8.022,8.133v6.3a1.569,1.569,0,0,1-1.635,1.609A1.708,1.708,0,0,1,14113.165,2119.468Zm-9.881-6.3a4.9,4.9,0,0,0,5.057,4.757,4.7,4.7,0,0,0,4.824-4.757,4.89,4.89,0,0,0-4.824-4.981A5.087,5.087,0,0,0,14103.284,2113.169Zm64.959,7.3-6.2-7.328-1.008.673v5.626a1.629,1.629,0,0,1-1.635,1.61,1.6,1.6,0,0,1-1.595-1.61v-20.827a1.589,1.589,0,0,1,1.595-1.577,1.623,1.623,0,0,1,1.635,1.577v11.444l7.4-4.789a1.657,1.657,0,0,1,2.282.189,1.609,1.609,0,0,1-.228,2.25l-5.708,3.7,5.936,7.04a1.613,1.613,0,0,1-1.242,2.6A1.527,1.527,0,0,1,14168.243,2120.465Z" transform="translate(-13966.884 -2059.109)" fill="currentColor"></path>
    <path id="pass-2" data-name="pass" d="M14147.567,2125.985v-1.426l.025-1.141a15.971,15.971,0,0,1-2.632,1.241.848.848,0,0,1-.291.05.685.685,0,0,1-.171-1.348,12.821,12.821,0,0,0,4.544-2.738l-3.651.053h-.021a.625.625,0,0,1-.491-.224.741.741,0,0,1-.159-.473.659.659,0,0,1,.661-.693l3.047-.029a.765.765,0,0,1-.348-.181,10.708,10.708,0,0,0-.957-.771.65.65,0,0,1-.295-.533.746.746,0,0,1,.743-.708.811.811,0,0,1,.448.139,9.162,9.162,0,0,1,1.027.771.75.75,0,0,1,.26.548.783.783,0,0,1-.615.733l.914-.007c.014,0,.024,0,.031,0,.758,0,1.245.37,1.245.946a1.36,1.36,0,0,1-.381.878,10.65,10.65,0,0,1-1.443,1.362v3.556a.671.671,0,0,1-.747.647A.682.682,0,0,1,14147.567,2125.985Zm16.318-.274v-7.844a.771.771,0,0,1,1.536,0v2.521a.7.7,0,0,1,.359-.1.815.815,0,0,1,.334.075,12.6,12.6,0,0,1,2.24,1.333.8.8,0,0,1,.352.654.753.753,0,0,1-.743.757.857.857,0,0,1-.529-.185,18.337,18.337,0,0,0-1.932-1.223.842.842,0,0,1-.081-.05v4.064a.773.773,0,0,1-1.536,0Zm-8.41-.053a.712.712,0,0,1,.405-.626,7.72,7.72,0,0,0,3.652-4.872.622.622,0,0,1,.65-.473.7.7,0,0,1,.758.644.519.519,0,0,1-.028.174,9.443,9.443,0,0,1-4.389,5.75l-.007,0a.873.873,0,0,1-.359.1A.7.7,0,0,1,14155.476,2125.658Zm-3.982-1.149a12.267,12.267,0,0,0-1.764-1.173.677.677,0,0,1-.366-.587.693.693,0,0,1,.693-.686.786.786,0,0,1,.342.078,9.51,9.51,0,0,1,1.994,1.255.753.753,0,0,1,.306.594.71.71,0,0,1-.7.708A.8.8,0,0,1,14151.493,2124.509Zm3.286-2.4a9.61,9.61,0,0,0-.654-1.305.6.6,0,0,1-.1-.327.686.686,0,0,1,.722-.619.7.7,0,0,1,.608.334,8.035,8.035,0,0,1,.743,1.437.632.632,0,0,1,.039.242.707.707,0,0,1-.743.651A.639.639,0,0,1,14154.779,2122.106Zm2.02-.541a8.655,8.655,0,0,0-.612-1.28.611.611,0,0,1-.092-.316.656.656,0,0,1,.715-.6.677.677,0,0,1,.615.338,7.319,7.319,0,0,1,.683,1.426.789.789,0,0,1,.042.224.693.693,0,0,1-.725.644A.644.644,0,0,1,14156.8,2121.565Zm-103.063-5.024a2.281,2.281,0,1,1,2.279,2.251A2.264,2.264,0,0,1,14053.735,2116.541Zm-7.827,0a2.283,2.283,0,1,1,2.283,2.251A2.268,2.268,0,0,1,14045.908,2116.541Zm.5-5.775a7.968,7.968,0,0,1-.021-11.389,8.319,8.319,0,0,1,7.905-2.112,1.614,1.614,0,0,1,1.155,1.956,1.67,1.67,0,0,1-1.984,1.134,4.991,4.991,0,0,0-4.8,1.273,4.854,4.854,0,0,0,0,6.909,5.056,5.056,0,0,0,7.013,0,4.8,4.8,0,0,0,1.333-4.5,1.65,1.65,0,0,1,1.248-1.913,1.631,1.631,0,0,1,1.913,1.251,7.93,7.93,0,0,1-2.212,7.411,8.16,8.16,0,0,1-5.753,2.34A8.247,8.247,0,0,1,14046.406,2110.766Z" transform="translate(-13947.465 -2050.833)" fill="#3588d1"></path>
  </g>
</svg>